<svg version="1.1" xmlns="http://www.w3.org/2000/svg" xmlns:xlink="http://www.w3.org/1999/xlink" width="125.47693pt" height="52.56633pt" viewBox="-72 -72 125.47693 52.56633"><g stroke-miterlimit="10" transform="translate(-66.43702697753905,-39.97380065917968) scale(1,-1)"><g stroke="#000" fill="#000"> <g stroke-width="0.4"> <g transform="translate(-2.5,-2.22221)"> <g stroke="#000" fill="#000"> <g stroke="none" transform="scale(-1,1) translate(-66.43702697753905,-39.97380065917968) scale(-1,-1)"><g fill="#000"> <g stroke="none"> <text alignment-baseline="baseline" y="-39.97380065917968" x="-66.43702697753905" font-family="cmsy10" font-size="10" fill="black">²</text></g> </g> </g></g> </g> <g transform="translate(54.40549,-2.22221)"> <g stroke="#000" fill="#000"> <g stroke="none" transform="scale(-1,1) translate(-66.43702697753905,-39.97380065917968) scale(-1,-1)"><g fill="#000"> <g stroke="none"> <text alignment-baseline="baseline" y="-39.97380065917968" x="-66.43702697753905" font-family="cmsy10" font-size="10" fill="black">²</text></g> </g> </g></g> </g> <g transform="translate(111.31097,-2.22221)"> <g stroke="#000" fill="#000"> <g stroke="none" transform="scale(-1,1) translate(-66.43702697753905,-39.97380065917968) scale(-1,-1)"><g fill="#000"> <g stroke="none"> <text alignment-baseline="baseline" y="-39.97380065917968" x="-66.43702697753905" font-family="cmsy10" font-size="10" fill="black">²</text></g> </g> </g></g> </g> <g stroke-width="0.8"> <path d=" M 4.82791 5.75519 C 16.67195 19.87013 40.23354 19.87013 51.6212 6.29906  " fill="none"></path> <g transform="matrix(0.64278,-0.76602,0.76602,0.64278,51.6212,6.29906)"> <g stroke-width="0.64"> <g stroke-dasharray="none" stroke-dashoffset="0.0"> <g stroke-linecap="round"> <g stroke-linejoin="round"> <path d=" M -1.55997 2.07996 C -1.42996 1.29997 0.0 0.12999 0.38998 0.0 C 0.0 -0.12999 -1.42996 -1.29997 -1.55997 -2.07996  " fill="none"></path> </g> </g> </g> </g>  </g> <g transform="translate(23.76173,22.01878)"> <g stroke="#000" fill="#000"> <g stroke="none" transform="scale(-1,1) translate(-66.43702697753905,-39.97380065917968) scale(-1,-1)"><g fill="#000"> <g stroke="none"> <text alignment-baseline="baseline" y="-39.97380065917968" x="-66.43702697753905" font-family="cmmi10" font-size="10" fill="black">f</text><text alignment-baseline="baseline" y="-38.47381591796874" x="-61.54116821289061" font-family="cmr7" font-size="7" fill="black">1</text></g> </g> </g></g> </g> </g> <g stroke-width="0.8"> <path d=" M 4.82791 -5.75519 C 16.67195 -19.87013 40.23354 -19.87013 51.6212 -6.29906  " fill="none"></path> <g transform="matrix(0.64278,0.76602,-0.76602,0.64278,51.6212,-6.29906)"> <g stroke-width="0.64"> <g stroke-dasharray="none" stroke-dashoffset="0.0"> <g stroke-linecap="round"> <g stroke-linejoin="round"> <path d=" M -1.55997 2.07996 C -1.42996 1.29997 0.0 0.12999 0.38998 0.0 C 0.0 -0.12999 -1.42996 -1.29997 -1.55997 -2.07996  " fill="none"></path> </g> </g> </g> </g>  </g> <g transform="translate(23.76173,-10.66396)"> <g stroke="#000" fill="#000"> <g stroke="none" transform="scale(-1,1) translate(-66.43702697753905,-39.97380065917968) scale(-1,-1)"><g fill="#000"> <g stroke="none"> <text alignment-baseline="baseline" y="-39.97380065917968" x="-66.43702697753905" font-family="cmmi10" font-size="10" fill="black">f</text><text alignment-baseline="baseline" y="-38.47381591796874" x="-61.54116821289061" font-family="cmr7" font-size="7" fill="black">3</text></g> </g> </g></g> </g> </g> <g stroke-width="0.8"> <path d=" M 6.03297 0.0 L 50.1625 0.0  " fill="none"></path> <g transform="translate(50.1625,0.0)"> <g stroke-width="0.64"> <g stroke-dasharray="none" stroke-dashoffset="0.0"> <g stroke-linecap="round"> <g stroke-linejoin="round"> <path d=" M -1.55997 2.07996 C -1.42996 1.29997 0.0 0.12999 0.38998 0.0 C 0.0 -0.12999 -1.42996 -1.29997 -1.55997 -2.07996  " fill="none"></path> </g> </g> </g> </g>  </g> <g transform="translate(23.76175,5.67741)"> <g stroke="#000" fill="#000"> <g stroke="none" transform="scale(-1,1) translate(-66.43702697753905,-39.97380065917968) scale(-1,-1)"><g fill="#000"> <g stroke="none"> <text alignment-baseline="baseline" y="-39.97380065917968" x="-66.43702697753905" font-family="cmmi10" font-size="10" fill="black">f</text><text alignment-baseline="baseline" y="-38.47381591796874" x="-61.54116821289061" font-family="cmr7" font-size="7" fill="black">2</text></g> </g> </g></g> </g> </g> <g stroke-width="0.8"> <path d=" M 61.7334 5.75519 C 73.57744 19.87013 97.13902 19.87013 108.52669 6.29906  " fill="none"></path> <g transform="matrix(0.64278,-0.76602,0.76602,0.64278,108.52669,6.29906)"> <g stroke-width="0.64"> <g stroke-dasharray="none" stroke-dashoffset="0.0"> <g stroke-linecap="round"> <g stroke-linejoin="round"> <path d=" M -1.55997 2.07996 C -1.42996 1.29997 0.0 0.12999 0.38998 0.0 C 0.0 -0.12999 -1.42996 -1.29997 -1.55997 -2.07996  " fill="none"></path> </g> </g> </g> </g>  </g> <g transform="translate(80.73032,22.01877)"> <g stroke="#000" fill="#000"> <g stroke="none" transform="scale(-1,1) translate(-66.43702697753905,-39.97380065917968) scale(-1,-1)"><g fill="#000"> <g stroke="none"> <text alignment-baseline="baseline" y="-39.97380065917968" x="-66.43702697753905" font-family="cmmi10" font-size="10" fill="black">g</text><text alignment-baseline="baseline" y="-38.47381591796874" x="-61.66733932495116" font-family="cmr7" font-size="7" fill="black">1</text></g> </g> </g></g> </g> </g> <g stroke-width="0.8"> <path d=" M 61.7334 -5.75519 C 73.57744 -19.87013 97.13902 -19.87013 108.52669 -6.29906  " fill="none"></path> <g transform="matrix(0.64278,0.76602,-0.76602,0.64278,108.52669,-6.29906)"> <g stroke-width="0.64"> <g stroke-dasharray="none" stroke-dashoffset="0.0"> <g stroke-linecap="round"> <g stroke-linejoin="round"> <path d=" M -1.55997 2.07996 C -1.42996 1.29997 0.0 0.12999 0.38998 0.0 C 0.0 -0.12999 -1.42996 -1.29997 -1.55997 -2.07996  " fill="none"></path> </g> </g> </g> </g>  </g> <g transform="translate(80.73032,-10.66397)"> <g stroke="#000" fill="#000"> <g stroke="none" transform="scale(-1,1) translate(-66.43702697753905,-39.97380065917968) scale(-1,-1)"><g fill="#000"> <g stroke="none"> <text alignment-baseline="baseline" y="-39.97380065917968" x="-66.43702697753905" font-family="cmmi10" font-size="10" fill="black">g</text><text alignment-baseline="baseline" y="-38.47381591796874" x="-61.66733932495116" font-family="cmr7" font-size="7" fill="black">3</text></g> </g> </g></g> </g> </g> <g stroke-width="0.8"> <path d=" M 62.93846 0.0 L 107.068 0.0  " fill="none"></path> <g transform="translate(107.068,0.0)"> <g stroke-width="0.64"> <g stroke-dasharray="none" stroke-dashoffset="0.0"> <g stroke-linecap="round"> <g stroke-linejoin="round"> <path d=" M -1.55997 2.07996 C -1.42996 1.29997 0.0 0.12999 0.38998 0.0 C 0.0 -0.12999 -1.42996 -1.29997 -1.55997 -2.07996  " fill="none"></path> </g> </g> </g> </g>  </g> <g transform="translate(80.73033,5.6774)"> <g stroke="#000" fill="#000"> <g stroke="none" transform="scale(-1,1) translate(-66.43702697753905,-39.97380065917968) scale(-1,-1)"><g fill="#000"> <g stroke="none"> <text alignment-baseline="baseline" y="-39.97380065917968" x="-66.43702697753905" font-family="cmmi10" font-size="10" fill="black">g</text><text alignment-baseline="baseline" y="-38.47381591796874" x="-61.66733932495116" font-family="cmr7" font-size="7" fill="black">2</text></g> </g> </g></g> </g> </g> </g> </g> </g></svg>